<?xml version="1.0" encoding="utf-8"?>
<!-- Generator: Adobe Illustrator 23.0.5, SVG Export Plug-In . SVG Version: 6.00 Build 0)  -->
<svg version="1.1" id="Слой_1" xmlns="http://www.w3.org/2000/svg" xmlns:xlink="http://www.w3.org/1999/xlink" x="0px" y="0px"
	 viewBox="0 0 512 512" style="enable-background:new 0 0 512 512;" xml:space="preserve">
<path d="M461,122H349.3V84.1c0-21.6-17.6-39.1-39.1-39.1H201.8c-21.6,0-39.1,17.6-39.1,39.1V122H51c-28.1,0-51,22.9-51,51v243.3
	c0,28.1,22.9,51,51,51h410c28.1,0,51-22.9,51-51V173.1C512,144.9,489.1,122,461,122z M193,84.1c0-4.8,3.9-8.7,8.7-8.7h108.4
	c4.8,0,8.7,3.9,8.7,8.7V122H193V84.1z M30.4,173.1c0-11.4,9.3-20.6,20.6-20.6h410c11.4,0,20.6,9.3,20.6,20.6v45.1H30.4V173.1z
	 M201.8,248.6h108.4v12.9c0,13.8-11.3,25.1-25.1,25.1h-58.3c-13.8,0-25.1-11.3-25.1-25.1v-12.9H201.8z M481.6,416.3
	c0,11.4-9.3,20.6-20.6,20.6H51c-11.4,0-20.6-9.3-20.6-20.6V248.6h141v12.9c0,30.6,24.9,55.5,55.5,55.5h58.3
	c30.6,0,55.5-24.9,55.5-55.5v-12.9h141L481.6,416.3L481.6,416.3z"/>
</svg>
