<?xml version="1.0" encoding="utf-8"?>
<!-- Generator: Adobe Illustrator 23.0.5, SVG Export Plug-In . SVG Version: 6.00 Build 0)  -->
<svg version="1.1" id="Слой_1" xmlns="http://www.w3.org/2000/svg" xmlns:xlink="http://www.w3.org/1999/xlink" x="0px" y="0px"
	 viewBox="0 0 512 512" style="enable-background:new 0 0 512 512;" xml:space="preserve">
<style type="text/css">
	.st0{fill:#FFFFFF;}
</style>
<title></title>
<g id="_1">
	<path class="st0" d="M399,450H115c-32.6,0-59-26.4-59-59V246c0-32.6,26.4-59,59-59h99.9c16,0,29-13,29-29l0,0l0,0
		c0-32.6,26.4-59,59-59H399c32.6,0,59,26.4,59,59v233C458,423.6,431.6,450,399,450z M115,217c-16,0-29,13-29,29v145
		c0,16,13,29,29,29h284c16,0,29-13,29-29V158c0-16-13-29-29-29l0,0h-96.1c-16,0-29,13-29,29l0,0c0,32.6-26.4,59-59,59H115z"/>
	<path class="st0" d="M121,217c-8.3,0-15-6.7-15-15V63c0-8.3,6.7-15,15-15h272c8.3,0,15,6.7,15,15v51c0,8.3-6.7,15-15,15
		s-15-6.7-15-15V78H136v124C136,210.3,129.3,217,121,217z"/>
</g>
</svg>
