<?xml version="1.0" encoding="utf-8"?>
<!-- Generator: Adobe Illustrator 23.0.5, SVG Export Plug-In . SVG Version: 6.00 Build 0)  -->
<svg version="1.1" id="Слой_1" xmlns="http://www.w3.org/2000/svg" xmlns:xlink="http://www.w3.org/1999/xlink" x="0px" y="0px"
	 viewBox="0 0 50 50" style="enable-background:new 0 0 50 50;" xml:space="preserve">
<g id="Layer_1">
	<path d="M35.8,20.6C38.3,19,40,16.2,40,13c0-5-4-9-9-9c-0.9,0-1.7,0.1-2.5,0.4C26.6,2.3,24,1,21,1c-5.5,0-10,4.5-10,10
		c0,3.4,1.7,6.5,4.4,8.3C9.5,20.5,5,25.7,5,32v17h32v-4h8V33C45,27.2,41.1,22.2,35.8,20.6z M29.7,6.1C30.1,6,30.6,6,31,6
		c3.9,0,7,3.1,7,7s-3.1,7-7,7c-1.4,0-2.7-0.4-3.8-1.1l0,0c0.9-0.7,1.6-1.5,2.2-2.4c0,0,0-0.1,0.1-0.1c0.2-0.3,0.3-0.5,0.5-0.8
		c0-0.1,0.1-0.1,0.1-0.2c0.1-0.3,0.2-0.6,0.4-0.8c0-0.1,0-0.1,0.1-0.2c0.1-0.3,0.2-0.6,0.2-0.8c0-0.1,0-0.1,0.1-0.2
		c0.1-0.3,0.1-0.6,0.1-0.9c0-0.1,0-0.2,0-0.2c0-0.4,0.1-0.7,0.1-1.1c0-0.4,0-0.8-0.1-1.2c0-0.1,0-0.2-0.1-0.4c0-0.3-0.1-0.5-0.2-0.8
		c0-0.1-0.1-0.3-0.1-0.4c-0.1-0.3-0.2-0.6-0.3-0.9c0-0.1-0.1-0.2-0.1-0.2C30.1,6.8,29.9,6.5,29.7,6.1L29.7,6.1z M13,11
		c0-4.4,3.6-8,8-8c2.5,0,4.7,1.1,6.2,2.9V6c0,0.1,0.1,0.1,0.1,0.2c0.5,0.7,0.9,1.4,1.2,2.2c0,0.1,0,0.1,0.1,0.2
		c0.1,0.4,0.2,0.7,0.3,1.1c0,0.1,0,0.2,0,0.2C29,10.2,29,10.6,29,11c0,0.3,0,0.7-0.1,1c0,0.1,0,0.1,0,0.2c0,0.3-0.1,0.5-0.2,0.8
		c0,0.1,0,0.1,0,0.2c-0.2,0.6-0.4,1.3-0.8,1.8l0,0c-0.2,0.3-0.3,0.5-0.5,0.8c0,0,0,0-0.1,0.1c-0.4,0.5-0.9,1-1.4,1.4
		c0,0-0.1,0-0.1,0.1c-0.3,0.2-0.5,0.4-0.8,0.5c0,0-0.1,0-0.1,0.1l-0.2,0.1C23.6,18.7,22.4,19,21,19C16.6,19,13,15.4,13,11z M35,47H7
		V32c0-6.1,4.9-11,11-11h6c1.5,0,2.9,0.3,4.2,0.8l0.2,0.1c0.1,0,0.2,0.1,0.3,0.2c0.3,0.1,0.6,0.3,0.9,0.5c0.1,0.1,0.3,0.1,0.4,0.2
		s0.3,0.2,0.4,0.3c0.1,0.1,0.3,0.2,0.4,0.3c0.1,0.1,0.2,0.2,0.3,0.3c0.2,0.1,0.3,0.3,0.5,0.4c0.1,0.1,0.2,0.2,0.4,0.4
		c0.1,0.1,0.3,0.3,0.4,0.4s0.2,0.2,0.3,0.3c0.1,0.1,0.2,0.3,0.3,0.4s0.2,0.2,0.3,0.4c0.1,0.2,0.2,0.4,0.3,0.5
		c0.1,0.2,0.2,0.4,0.3,0.6c0.1,0.1,0.1,0.3,0.2,0.4c0.1,0.1,0.1,0.3,0.2,0.4c0.1,0.2,0.1,0.3,0.2,0.5c0,0.1,0.1,0.3,0.1,0.4
		c0.1,0.3,0.2,0.6,0.2,0.8c0,0.1,0,0.2,0.1,0.3c0,0.2,0.1,0.4,0.1,0.7c0,0.1,0,0.2,0,0.3c0,0.3,0,0.7,0,1v13C35,44.9,35,47,35,47z
		 M43,43h-6V32c0-0.5,0-0.9-0.1-1.4c0-0.1,0-0.2,0-0.3c0-0.4-0.1-0.7-0.2-1.1c0-0.1-0.1-0.2-0.1-0.3c-0.1-0.3-0.2-0.7-0.3-1
		c0-0.1-0.1-0.2-0.1-0.3c-0.1-0.3-0.2-0.6-0.4-0.9c-0.1-0.1-0.1-0.2-0.2-0.3c-0.1-0.3-0.3-0.6-0.5-0.9c-0.1-0.1-0.1-0.2-0.2-0.3
		c-0.2-0.3-0.4-0.6-0.6-0.8c-0.1-0.1-0.1-0.2-0.2-0.3c-0.2-0.3-0.4-0.5-0.7-0.8c-0.1-0.1-0.1-0.2-0.2-0.2c-0.3-0.3-0.6-0.6-1-0.9
		C38.2,22.2,43,27,43,33V43z"/>
</g>
</svg>
