<?xml version="1.0" encoding="utf-8"?>
<!-- Generator: Adobe Illustrator 23.0.5, SVG Export Plug-In . SVG Version: 6.00 Build 0)  -->
<svg version="1.1" id="Layer_1" xmlns="http://www.w3.org/2000/svg" xmlns:xlink="http://www.w3.org/1999/xlink" x="0px" y="0px"
	 viewBox="0 0 48 48" style="enable-background:new 0 0 48 48;" xml:space="preserve">
<style type="text/css">
	.st0{fill-rule:evenodd;clip-rule:evenodd;fill:#FFFFFF;}
</style>
<path class="st0" d="M44.6,23.8L21.8,46.6c0,0-0.1,0.1-0.1,0.1C21.5,46.9,21.3,47,21,47c-0.3,0-0.5-0.1-0.7-0.3c0,0-0.1-0.1-0.1-0.1
	L3.4,29.8c0,0-0.1-0.1-0.1-0.1C3.1,29.5,3,29.3,3,29c0-0.3,0.1-0.5,0.3-0.7c0,0,0.1-0.1,0.1-0.1L26.2,5.4C26.4,5.2,26.7,5,27,5h0
	c0,0,0,0,0,0h4c0.1-1.5,0.7-2.8,1.7-3.7l0,0C32.9,1.1,33.2,1,33.5,1c0.6,0,1.1,0.5,1.1,1.1c0,0.4-0.2,0.7-0.4,0.9
	c-0.5,0.4-0.8,1.1-0.9,2H38c0,0,0,0,0,0h0c0.3,0,0.6,0.2,0.8,0.4l5.8,5.8c0.2,0.2,0.4,0.5,0.4,0.8v0c0,0,0,0,0,0V23c0,0,0,0,0,0v0
	C45,23.3,44.8,23.6,44.6,23.8z M34.3,16.7c-0.2,0.2-0.5,0.3-0.8,0.3c-0.6,0-1.1-0.5-1.1-1.1c0-0.4,0.2-0.7,0.4-0.9
	c0.2-0.2,0.5-0.5,0.6-0.9c-0.9,0.2-1.5,1-1.5,1.9c0,1.1,0.9,2,2,2c1.1,0,2-0.9,2-2c0-0.5-0.2-0.9-0.4-1.2
	C34.9,16.3,34.3,16.7,34.3,16.7z M43,12.4L37.6,7h-4.2c0.2,0.4,0.4,0.8,0.7,1.1l0,0c0,0,0.1,0.1,0.1,0.1l0,0c1,1,1.7,2.5,1.7,4.3
	c0,0,0,0.1,0,0.1c1.2,0.7,2,2,2,3.5c0,2.2-1.8,4-4,4s-4-1.8-4-4c0-2.1,1.7-3.9,3.8-4c-0.1-0.9-0.4-1.6-0.9-2.1c0,0-0.1-0.1-0.1-0.1
	l0,0C32,9.1,31.4,8.1,31.2,7h-3.8l-22,22L21,44.6l22-22C43,22.6,43,12.4,43,12.4z M14.3,27.3c0.4-0.4,1-0.4,1.4,0l7,7
	c0.4,0.4,0.4,1,0,1.4c-0.4,0.4-1,0.4-1.4,0l-7-7C13.9,28.3,13.9,27.7,14.3,27.3z M18.3,23.3c0.4-0.4,1-0.4,1.4,0l7,7
	c0.4,0.4,0.4,1,0,1.4c-0.4,0.4-1,0.4-1.4,0l-7-7C17.9,24.3,17.9,23.7,18.3,23.3z"/>
</svg>
